<?xml version="1.0" encoding="utf-8"?>
<!-- Generator: Adobe Illustrator 17.0.0, SVG Export Plug-In . SVG Version: 6.00 Build 0)  -->
<!DOCTYPE svg PUBLIC "-//W3C//DTD SVG 1.1//EN" "http://www.w3.org/Graphics/SVG/1.1/DTD/svg11.dtd">
<svg version="1.1" xmlns="http://www.w3.org/2000/svg" xmlns:xlink="http://www.w3.org/1999/xlink" x="0px" y="0px"
	 width="83.198px" height="100px" viewBox="0 0 83.198 100" style="enable-background:new 0 0 83.198 100;" xml:space="preserve">
<style type="text/css">
	.st0{fill:#707069;}
</style>
<g id="Layer_1">
	<g>
		<path class="st0" d="M30.468,57.498l-6.439,19.503h-8.28l21.067-62.005h9.659l21.159,62.005h-8.556l-6.623-19.503H30.468z
			 M50.798,51.242l-6.071-17.847c-1.38-4.048-2.3-7.728-3.22-11.315h-0.184c-0.92,3.68-1.932,7.451-3.128,11.224l-6.072,17.938
			H50.798z"/>
	</g>
</g>
<g id="Layer_2">
	<g>
		<path class="st0" d="M25.163,34.235v22.777c0.537,0.077,1.085,0.117,1.644,0.117h1.644V34.117h-1.644
			C26.248,34.117,25.7,34.158,25.163,34.235z M54.749,34.117v23.012h1.644c0.558,0,1.107-0.041,1.643-0.117V34.235
			c-0.537-0.077-1.086-0.118-1.643-0.118H54.749z M67.898,30.83c0-14.524-11.774-26.299-26.299-26.299
			C27.075,4.531,15.3,16.305,15.3,30.83c0,3.155,0.556,6.18,1.575,8.982c-1,1.706-1.575,3.691-1.575,5.811
			c0,4.59,2.688,8.551,6.575,10.398V35.225c-1.034,0.491-1.982,1.133-2.818,1.895c-0.308-1.501-0.47-3.055-0.47-4.647
			c0-12.709,10.303-23.011,23.012-23.011c12.709,0,23.011,10.303,23.011,23.011c0,1.592-0.162,3.146-0.47,4.647
			c-0.836-0.762-1.784-1.404-2.818-1.895v20.796c3.887-1.847,6.575-5.808,6.575-10.398c0-2.12-0.575-4.105-1.575-5.811
			C67.342,37.009,67.898,33.985,67.898,30.83z"/>
	</g>
</g>
<g id="Layer_3">
	<g>
		<path class="st0" d="M3.351,86.656l-1.268,3.84h-1.63l4.148-12.208h1.902l4.166,12.208H8.984l-1.304-3.84H3.351z M7.354,85.425
			l-1.195-3.514c-0.272-0.797-0.453-1.521-0.634-2.228H5.488c-0.181,0.724-0.38,1.467-0.616,2.209l-1.195,3.532H7.354z"/>
		<path class="st0" d="M19.526,88.105c0,0.905,0.018,1.702,0.072,2.391h-1.413l-0.091-1.431h-0.036
			c-0.417,0.706-1.34,1.63-2.898,1.63c-1.376,0-3.024-0.761-3.024-3.84v-5.126h1.594v4.854c0,1.666,0.507,2.789,1.956,2.789
			c1.068,0,1.811-0.742,2.101-1.449c0.09-0.235,0.145-0.525,0.145-0.814v-5.38h1.594V88.105z"/>
		<path class="st0" d="M29.743,77.637v10.596c0,0.778,0.018,1.666,0.072,2.264h-1.431l-0.072-1.521h-0.037
			c-0.489,0.979-1.558,1.721-2.988,1.721c-2.119,0-3.749-1.793-3.749-4.456c-0.019-2.916,1.793-4.709,3.93-4.709
			c1.34,0,2.246,0.634,2.645,1.341h0.036v-5.234H29.743z M28.149,85.298c0-0.199-0.018-0.471-0.073-0.67
			c-0.235-1.015-1.104-1.848-2.3-1.848c-1.648,0-2.626,1.449-2.626,3.387c0,1.775,0.869,3.242,2.59,3.242
			c1.069,0,2.047-0.706,2.336-1.901c0.055-0.218,0.073-0.435,0.073-0.688V85.298z"/>
		<path class="st0" d="M34.163,79.267c0.018,0.543-0.38,0.978-1.014,0.978c-0.562,0-0.96-0.435-0.96-0.978
			c0-0.562,0.417-0.996,0.996-0.996C33.783,78.271,34.163,78.705,34.163,79.267z M32.388,90.496v-8.767h1.594v8.767H32.388z"/>
		<path class="st0" d="M44.56,86.04c0,3.242-2.246,4.655-4.365,4.655c-2.373,0-4.202-1.738-4.202-4.51
			c0-2.935,1.919-4.655,4.347-4.655C42.858,81.53,44.56,83.36,44.56,86.04z M37.605,86.131c0,1.92,1.105,3.369,2.663,3.369
			c1.521,0,2.663-1.431,2.663-3.405c0-1.485-0.743-3.369-2.626-3.369S37.605,84.465,37.605,86.131z"/>
		<path class="st0" d="M46.572,84.592c0-1.123-0.036-2.029-0.072-2.862h1.431l0.072,1.504h0.036
			c0.652-1.069,1.685-1.703,3.115-1.703c2.119,0,3.713,1.793,3.713,4.456c0,3.151-1.92,4.709-3.984,4.709
			c-1.159,0-2.174-0.507-2.698-1.377h-0.036v4.764h-1.576V84.592z M48.148,86.928c0,0.235,0.036,0.453,0.072,0.652
			c0.289,1.104,1.249,1.865,2.391,1.865c1.685,0,2.662-1.376,2.662-3.387c0-1.757-0.924-3.26-2.607-3.26
			c-1.087,0-2.102,0.778-2.409,1.974c-0.055,0.199-0.108,0.435-0.108,0.652V86.928z"/>
		<path class="st0" d="M56.878,77.637h1.594v5.47h0.036c0.254-0.453,0.652-0.852,1.142-1.123c0.471-0.271,1.032-0.453,1.63-0.453
			c1.177,0,3.061,0.725,3.061,3.749v5.217h-1.594v-5.035c0-1.413-0.525-2.608-2.028-2.608c-1.032,0-1.848,0.725-2.138,1.594
			c-0.09,0.218-0.108,0.453-0.108,0.761v5.289h-1.594V77.637z"/>
		<path class="st0" d="M68.707,79.267c0.018,0.543-0.381,0.978-1.015,0.978c-0.562,0-0.96-0.435-0.96-0.978
			c0-0.562,0.416-0.996,0.996-0.996C68.326,78.271,68.707,78.705,68.707,79.267z M66.931,90.496v-8.767h1.594v8.767H66.931z"/>
		<path class="st0" d="M71.17,77.637h1.594v12.859H71.17V77.637z"/>
		<path class="st0" d="M76.333,86.402c0.036,2.155,1.412,3.043,3.007,3.043c1.141,0,1.829-0.199,2.427-0.452l0.271,1.141
			c-0.562,0.254-1.521,0.543-2.916,0.543c-2.699,0-4.311-1.774-4.311-4.419s1.558-4.728,4.111-4.728c2.861,0,3.622,2.518,3.622,4.13
			c0,0.326-0.036,0.579-0.054,0.742H76.333z M81.005,85.262c0.018-1.015-0.417-2.59-2.21-2.59c-1.612,0-2.318,1.485-2.445,2.59
			H81.005z"/>
	</g>
</g>
</svg>
